{
    "asset" : {
        "generator" : "Khronos glTF Blender I/O v3.2.43",
        "version" : "2.0"
    },
    "scene" : 0,
    "scenes" : [
        {
            "name" : "Scene",
            "nodes" : [
                0
            ]
        }
    ],
    "nodes" : [
        {
            "mesh" : 0,
            "name" : "Knight"
        }
    ],
    "meshes" : [
        {
            "name" : "Knight",
            "primitives" : [
                {
                    "attributes" : {
                        "POSITION" : 0,
                        "NORMAL" : 1
                    },
                    "indices" : 2
                }
            ]
        }
    ],
    "accessors" : [
        {
            "bufferView" : 0,
            "componentType" : 5126,
            "count" : 53962,
            "max" : [
                0.014599999412894249,
                0.024061011150479317,
                0.014599999412894249
            ],
            "min" : [
                -0.014599999412894249,
                -0.02530500292778015,
                -0.014599999412894249
            ],
            "type" : "VEC3"
        },
        {
            "bufferView" : 1,
            "componentType" : 5126,
            "count" : 53962,
            "type" : "VEC3"
        },
        {
            "bufferView" : 2,
            "componentType" : 5123,
            "count" : 140814,
            "type" : "SCALAR"
        }
    ],
    "bufferViews" : [
        {
            "buffer" : 0,
            "byteLength" : 647544,
            "byteOffset" : 0
        },
        {
            "buffer" : 0,
            "byteLength" : 647544,
            "byteOffset" : 647544
        },
        {
            "buffer" : 0,
            "byteLength" : 281628,
            "byteOffset" : 1295088
        }
    ],
    "buffers" : [
        {
            "byteLength" : 1576716,
            "uri" : "knight.bin"
        }
    ]
}
