{
	"asset":{
		"generator":"Khronos glTF Blender I/O v4.2.60",
		"version":"2.0"
	},
	"scene":0,
	"scenes":[
		{
			"name":"Scene",
			"nodes":[
				0
			]
		}
	],
	"nodes":[
		{
			"mesh":0,
			"name":"King"
		}
	],
	"meshes":[
		{
			"name":"King",
			"primitives":[
				{
					"attributes":{
						"POSITION":0,
						"NORMAL":1
					},
					"indices":2
				}
			]
		}
	],
	"accessors":[
		{
			"bufferView":0,
			"componentType":5126,
			"count":19535,
			"max":[
				0.013927613385021687,
				0.05238750949501991,
				0.013927613385021687
			],
			"min":[
				-0.013927613385021687,
				-0.026999998837709427,
				-0.013927613385021687
			],
			"type":"VEC3"
		},
		{
			"bufferView":1,
			"componentType":5126,
			"count":19535,
			"type":"VEC3"
		},
		{
			"bufferView":2,
			"componentType":5123,
			"count":117186,
			"type":"SCALAR"
		}
	],
	"bufferViews":[
		{
			"buffer":0,
			"byteLength":234420,
			"byteOffset":0,
			"target":34962
		},
		{
			"buffer":0,
			"byteLength":234420,
			"byteOffset":234420,
			"target":34962
		},
		{
			"buffer":0,
			"byteLength":234372,
			"byteOffset":468840,
			"target":34963
		}
	],
	"buffers":[
		{
			"byteLength":703212,
			"uri":"king.bin"
		}
	]
}
