{
	"asset":{
		"generator":"Khronos glTF Blender I/O v4.2.60",
		"version":"2.0"
	},
	"scene":0,
	"scenes":[
		{
			"name":"Scene",
			"nodes":[
				0
			]
		}
	],
	"nodes":[
		{
			"mesh":0,
			"name":"bishop"
		}
	],
	"meshes":[
		{
			"name":"bishop",
			"primitives":[
				{
					"attributes":{
						"POSITION":0,
						"NORMAL":1
					},
					"indices":2
				}
			]
		}
	],
	"accessors":[
		{
			"bufferView":0,
			"componentType":5126,
			"count":232125,
			"max":[
				-2.1327462196350098,
				0.042746707797050476,
				-0.11773143708705902
			],
			"min":[
				-2.1621503829956055,
				-0.019151464104652405,
				-0.14713545143604279
			],
			"type":"VEC3"
		},
		{
			"bufferView":1,
			"componentType":5126,
			"count":232125,
			"type":"VEC3"
		},
		{
			"bufferView":2,
			"componentType":5125,
			"count":1392804,
			"type":"SCALAR"
		}
	],
	"bufferViews":[
		{
			"buffer":0,
			"byteLength":2785500,
			"byteOffset":0,
			"target":34962
		},
		{
			"buffer":0,
			"byteLength":2785500,
			"byteOffset":2785500,
			"target":34962
		},
		{
			"buffer":0,
			"byteLength":5571216,
			"byteOffset":5571000,
			"target":34963
		}
	],
	"buffers":[
		{
			"byteLength":11142216,
			"uri":"bishop.bin"
		}
	]
}
