{
	"asset":{
		"generator":"Khronos glTF Blender I/O v4.2.60",
		"version":"2.0"
	},
	"scene":0,
	"scenes":[
		{
			"name":"Scene",
			"nodes":[
				0
			]
		}
	],
	"nodes":[
		{
			"mesh":0,
			"name":"Knight"
		}
	],
	"meshes":[
		{
			"name":"Knight",
			"primitives":[
				{
					"attributes":{
						"POSITION":0,
						"NORMAL":1
					},
					"indices":2
				}
			]
		}
	],
	"accessors":[
		{
			"bufferView":0,
			"componentType":5126,
			"count":403448,
			"max":[
				0.014599999412894249,
				0.02406231127679348,
				0.014599999412894249
			],
			"min":[
				-0.014599999412894249,
				-0.02530500292778015,
				-0.014599999412894249
			],
			"type":"VEC3"
		},
		{
			"bufferView":1,
			"componentType":5126,
			"count":403448,
			"type":"VEC3"
		},
		{
			"bufferView":2,
			"componentType":5125,
			"count":2420664,
			"type":"SCALAR"
		}
	],
	"bufferViews":[
		{
			"buffer":0,
			"byteLength":4841376,
			"byteOffset":0,
			"target":34962
		},
		{
			"buffer":0,
			"byteLength":4841376,
			"byteOffset":4841376,
			"target":34962
		},
		{
			"buffer":0,
			"byteLength":9682656,
			"byteOffset":9682752,
			"target":34963
		}
	],
	"buffers":[
		{
			"byteLength":19365408,
			"uri":"knight.bin"
		}
	]
}
