{
	"asset":{
		"generator":"Khronos glTF Blender I/O v4.2.60",
		"version":"2.0"
	},
	"scene":0,
	"scenes":[
		{
			"name":"Scene",
			"nodes":[
				0
			]
		}
	],
	"nodes":[
		{
			"mesh":0,
			"name":"Pawn"
		}
	],
	"meshes":[
		{
			"name":"Pawn",
			"primitives":[
				{
					"attributes":{
						"POSITION":0,
						"NORMAL":1
					},
					"indices":2
				}
			]
		}
	],
	"accessors":[
		{
			"bufferView":0,
			"componentType":5126,
			"count":63355,
			"max":[
				0.01454760879278183,
				0.02030913531780243,
				0.014606769196689129
			],
			"min":[
				-0.01454760879278183,
				-0.02031000517308712,
				-0.014606770128011703
			],
			"type":"VEC3"
		},
		{
			"bufferView":1,
			"componentType":5126,
			"count":63355,
			"type":"VEC3"
		},
		{
			"bufferView":2,
			"componentType":5123,
			"count":459093,
			"type":"SCALAR"
		}
	],
	"bufferViews":[
		{
			"buffer":0,
			"byteLength":760260,
			"byteOffset":0,
			"target":34962
		},
		{
			"buffer":0,
			"byteLength":760260,
			"byteOffset":760260,
			"target":34962
		},
		{
			"buffer":0,
			"byteLength":918186,
			"byteOffset":1520520,
			"target":34963
		}
	],
	"buffers":[
		{
			"byteLength":2438708,
			"uri":"pawn.bin"
		}
	]
}
