{
	"asset":{
		"generator":"Khronos glTF Blender I/O v4.2.60",
		"version":"2.0"
	},
	"scene":0,
	"scenes":[
		{
			"name":"Scene",
			"nodes":[
				0
			]
		}
	],
	"nodes":[
		{
			"mesh":0,
			"name":"rook"
		}
	],
	"meshes":[
		{
			"name":"rook",
			"primitives":[
				{
					"attributes":{
						"POSITION":0,
						"NORMAL":1
					},
					"indices":2
				}
			]
		}
	],
	"accessors":[
		{
			"bufferView":0,
			"componentType":5126,
			"count":19500,
			"max":[
				0.014497549273073673,
				0.022481586784124374,
				0.014497549273073673
			],
			"min":[
				-0.014497549273073673,
				-0.024297945201396942,
				-0.014497549273073673
			],
			"type":"VEC3"
		},
		{
			"bufferView":1,
			"componentType":5126,
			"count":19500,
			"type":"VEC3"
		},
		{
			"bufferView":2,
			"componentType":5123,
			"count":116988,
			"type":"SCALAR"
		}
	],
	"bufferViews":[
		{
			"buffer":0,
			"byteLength":234000,
			"byteOffset":0,
			"target":34962
		},
		{
			"buffer":0,
			"byteLength":234000,
			"byteOffset":234000,
			"target":34962
		},
		{
			"buffer":0,
			"byteLength":233976,
			"byteOffset":468000,
			"target":34963
		}
	],
	"buffers":[
		{
			"byteLength":701976,
			"uri":"rook.bin"
		}
	]
}
